<?xml version="1.0" standalone="no"?>
<!DOCTYPE svg PUBLIC "-//W3C//DTD SVG 20010904//EN"
 "http://www.w3.org/TR/2001/REC-SVG-20010904/DTD/svg10.dtd">
<svg version="1.0" xmlns="http://www.w3.org/2000/svg"
 width="261.000000pt" height="261.000000pt" viewBox="0 0 261.000000 261.000000"
 preserveAspectRatio="xMidYMid meet">
<metadata>
Created by potrace 1.14, written by Peter Selinger 2001-2017
</metadata>
<g transform="translate(0.000000,261.000000) scale(0.100000,-0.100000)"
fill="#000000" stroke="none">
<path d="M890 2598 c0 -4 3 -8 8 -9 4 0 15 -2 24 -4 9 -2 19 2 21 9 3 7 -7 11
-24 11 -16 1 -29 -3 -29 -7z"/>
<path d="M874 2588 c3 -11 0 -18 -8 -18 -11 0 -14 -15 -13 -62 l2 -63 38 0
c31 0 37 -3 37 -21 0 -15 6 -20 23 -20 16 1 22 -5 22 -19 0 -11 5 -19 10 -18
6 0 18 -3 28 -9 14 -7 16 -13 7 -23 -13 -15 12 -29 27 -14 6 6 9 -9 9 -38 0
-40 2 -48 17 -45 9 2 17 -2 17 -8 0 -6 -4 -9 -9 -6 -11 7 -20 -14 -14 -32 3
-8 9 -10 17 -3 8 7 11 1 11 -19 1 -17 -3 -26 -10 -22 -7 4 -7 1 0 -9 6 -8 11
-32 10 -53 0 -29 -5 -40 -18 -42 -21 -3 -32 12 -16 22 8 5 9 3 4 -6 -6 -9 -4
-11 4 -6 16 11 6 19 -27 24 -15 2 -28 7 -30 13 -2 5 -8 9 -13 9 -6 0 -8 -4 -5
-8 3 -5 -2 -9 -10 -9 -10 0 -11 4 -4 11 17 17 11 26 -19 26 -17 0 -33 5 -36
10 -3 6 -1 10 5 10 6 0 8 5 5 10 -3 6 -11 10 -16 10 -6 0 -7 -4 -4 -10 3 -5 1
-10 -5 -10 -6 0 -8 -5 -4 -12 4 -7 3 -8 -4 -4 -6 4 -8 14 -5 22 4 11 0 15 -13
14 -32 -4 -42 0 -40 13 3 23 17 36 31 30 8 -3 15 0 15 6 0 6 -4 11 -10 11 -5
0 -10 5 -10 11 0 6 7 8 16 5 12 -5 15 -2 10 10 -5 14 -4 15 9 4 9 -7 19 -9 23
-5 4 4 1 10 -5 12 -7 3 -13 9 -13 14 0 4 7 5 17 2 11 -5 14 -3 8 6 -4 8 -2 17
6 22 11 7 10 11 -6 23 -11 8 -24 12 -29 9 -5 -4 -6 -1 -2 6 4 6 12 9 17 6 5
-4 9 -1 9 4 0 6 -8 11 -19 11 -10 0 -24 7 -31 15 -11 13 -10 15 1 12 8 -2 11
-2 6 0 -4 3 -4 9 -1 15 4 6 -2 6 -14 -1 -14 -8 -23 -8 -27 -1 -7 12 -38 -7
-31 -19 6 -11 -13 -51 -25 -51 -8 0 -9 4 0 13 8 10 7 14 -2 14 -9 0 -14 -16
-16 -45 -1 -30 1 -42 9 -37 7 4 10 1 8 -7 -2 -7 0 -13 4 -13 21 1 55 -79 38
-90 -11 -7 -22 24 -13 37 3 7 1 8 -5 4 -7 -4 -32 -8 -57 -10 -25 -1 -51 -8
-58 -16 -10 -10 -8 -10 11 -1 18 10 22 9 22 -4 0 -8 -3 -14 -7 -14 -29 5 -41
-3 -36 -21 3 -12 0 -20 -6 -20 -7 0 -9 5 -6 10 3 6 2 10 -3 10 -14 0 -22 -25
-22 -65 0 -23 -5 -35 -16 -37 -12 -2 -18 -15 -20 -42 -1 -21 -8 -42 -16 -47
-7 -5 -8 -9 -2 -9 6 0 11 -14 11 -30 0 -20 -5 -29 -13 -26 -6 2 -20 -2 -31
-10 -10 -9 -11 -12 -3 -8 13 7 13 5 2 -8 -9 -11 -9 -18 -2 -21 7 -4 7 -5 0 -3
-7 1 -11 5 -10 10 1 5 -3 12 -9 15 -6 4 -12 17 -14 29 -4 26 -17 41 -18 21 -1
-8 -1 -18 0 -22 1 -5 -3 -6 -8 -2 -6 3 -7 13 -4 21 4 10 1 15 -8 14 -31 -5
-50 0 -43 11 4 7 1 10 -7 7 -8 -3 -14 -10 -14 -16 0 -19 -13 -24 -32 -12 -16
9 -15 10 7 4 14 -3 22 -3 18 1 -4 5 -3 14 4 22 6 7 7 17 3 21 -4 4 -10 1 -12
-6 -3 -6 -10 -9 -16 -5 -20 13 -49 14 -41 2 4 -8 0 -7 -15 1 -17 9 -26 9 -37
-1 -8 -6 -14 -7 -14 -2 0 4 -25 8 -56 7 -74 -1 -109 7 -110 28 -1 10 4 14 12
11 8 -3 11 -10 7 -17 -3 -6 -2 -7 3 -3 5 5 9 12 9 15 2 27 19 52 36 53 34 2
39 4 40 12 0 5 -3 12 -7 15 -4 4 -3 0 1 -8 8 -13 7 -13 -8 -1 -22 18 -22 17
16 16 35 -1 60 12 51 26 -6 10 36 29 49 22 4 -2 7 0 7 6 0 5 -5 11 -12 13 -8
3 -6 7 5 11 9 3 19 1 23 -5 4 -7 3 -8 -4 -4 -8 5 -10 2 -6 -9 10 -24 20 -4 23
43 1 6 6 12 12 12 5 0 8 -4 4 -9 -3 -5 -1 -12 4 -15 5 -4 12 -2 15 3 4 5 2 12
-4 16 -6 4 -8 11 -5 16 12 18 14 49 4 54 -5 4 -6 11 -3 17 4 7 2 8 -4 4 -6 -4
-9 -13 -5 -21 3 -8 0 -15 -7 -15 -6 0 -9 4 -6 8 8 13 -10 33 -32 35 -11 0 -18
5 -16 9 3 4 0 8 -5 8 -6 0 -11 -4 -11 -8 0 -5 -7 -9 -15 -9 -19 0 -19 7 2 22
14 10 10 12 -25 11 -23 0 -42 -4 -42 -9 0 -4 11 -5 24 -3 20 4 23 1 19 -12 -4
-10 -8 -12 -11 -4 -2 7 -9 9 -14 6 -6 -4 -16 0 -23 9 -7 10 -29 18 -58 19 -45
3 -45 4 -49 41 -2 20 1 37 6 37 5 0 7 3 3 6 -3 3 6 17 20 30 13 12 22 28 18
33 -3 6 -1 12 4 12 6 1 17 2 24 3 6 1 11 8 9 16 -3 11 0 11 14 -1 16 -13 16
-12 4 11 -12 23 -12 24 3 11 10 -7 17 -12 18 -10 12 53 11 55 -35 55 -35 0
-43 -4 -41 -16 2 -10 -5 -16 -18 -17 -22 -2 -39 -22 -30 -37 3 -5 1 -6 -6 -2
-6 4 -8 12 -5 18 4 6 1 9 -7 6 -8 -3 -14 -11 -14 -19 -1 -8 -7 -13 -15 -11
-11 3 -11 0 -1 -12 7 -8 11 -21 8 -28 -4 -9 -6 -7 -6 3 -1 9 -8 19 -16 23 -8
3 -14 2 -14 -2 1 -4 1 -25 -1 -47 -1 -32 -3 -36 -10 -20 -7 17 -9 17 -9 3 -1
-10 -5 -18 -11 -18 -5 0 -10 -4 -10 -10 0 -5 8 -7 18 -4 15 5 15 4 2 -8 -19
-17 -22 -58 -4 -51 8 3 12 8 10 12 -3 4 -1 13 4 20 5 9 8 4 9 -15 2 -99 1 -96
22 -91 14 4 21 -1 25 -20 5 -18 9 -21 15 -12 5 8 3 17 -4 22 -8 6 -8 7 3 4 8
-2 14 -11 12 -21 -2 -12 6 -16 35 -17 21 -1 44 -1 50 0 7 1 13 -3 13 -9 0 -5
-5 -10 -12 -10 -20 0 -1 -11 28 -16 27 -5 28 -4 10 9 -14 10 -16 16 -7 21 7 5
15 5 18 2 4 -3 0 -6 -8 -6 -12 0 -12 -2 0 -9 16 -10 22 -49 10 -57 -4 -2 -24
-5 -44 -6 -20 -1 -38 -5 -40 -9 -3 -3 2 -6 10 -5 7 0 14 -3 14 -9 1 -11 -3
-12 -48 -14 -25 -1 -28 -4 -23 -23 4 -18 2 -20 -16 -16 -20 6 -27 -2 -23 -26
1 -4 -4 -15 -11 -24 -10 -12 -10 -14 0 -8 12 7 17 -14 12 -59 l-2 -20 17 20
c9 11 14 14 10 8 -3 -7 0 -13 7 -14 7 0 23 -2 36 -5 16 -3 21 0 17 8 -4 7 0 6
7 -4 10 -11 19 -13 30 -7 13 7 18 4 23 -11 7 -21 7 -21 41 5 27 20 32 22 27 8
-6 -16 -5 -16 10 -4 9 7 17 10 17 6 0 -4 7 -2 15 5 8 7 15 9 15 4 0 -4 5 -3
12 4 7 7 16 12 22 12 5 0 1 -6 -9 -14 -18 -13 -18 -13 1 -24 18 -10 18 -11 -3
-9 -12 0 -19 5 -16 11 3 5 1 6 -5 2 -22 -14 -12 -26 18 -22 17 2 50 -1 73 -6
42 -8 43 -10 42 -48 0 -21 -2 -38 -5 -38 -3 0 -14 0 -25 -1 -17 -1 -18 -3 -5
-11 12 -8 12 -10 1 -10 -8 0 -11 -3 -8 -7 4 -3 1 -13 -6 -21 -9 -13 -9 -14 0
-8 9 5 11 2 7 -7 -3 -8 -13 -14 -22 -13 -10 1 -16 -5 -14 -15 1 -9 -5 -23 -15
-30 -11 -9 -14 -10 -9 -2 5 9 2 11 -7 7 -9 -3 -13 -13 -10 -25 4 -14 0 -19
-16 -19 -19 0 -22 -5 -20 -37 3 -37 4 -38 43 -40 32 -1 37 1 23 8 -9 6 -22 7
-29 3 -7 -4 -8 -3 -4 4 4 7 1 12 -8 12 -9 0 -16 5 -16 10 0 6 13 4 30 -5 36
-19 41 -19 34 -1 -4 11 0 14 19 10 23 -4 25 -1 21 23 -3 21 -2 24 6 13 5 -8
10 -12 11 -7 5 24 4 33 -6 40 -6 6 -4 7 6 4 9 -3 23 0 30 6 7 7 5 2 -4 -9 -14
-17 -15 -23 -5 -27 10 -3 11 -8 1 -26 -15 -24 -17 -43 -3 -21 8 12 9 9 6 -10
-2 -16 -9 -24 -20 -24 -11 1 -16 -7 -18 -30 0 -17 -2 -44 -3 -59 -2 -34 -20
-56 -22 -27 -1 13 2 18 10 14 9 -5 8 -3 0 6 -19 20 -23 10 -27 -66 -3 -38 -5
-71 -6 -74 -1 -3 -2 -9 -1 -13 1 -5 -3 -6 -8 -3 -5 4 -8 15 -6 25 2 10 -2 18
-8 18 -7 0 -13 -19 -13 -46 -4 -101 -7 -110 -33 -99 -19 7 -22 6 -14 -4 6 -7
9 -29 8 -48 -1 -26 -6 -35 -18 -34 -9 1 -14 -2 -11 -7 3 -5 0 -9 -5 -9 -6 0
-11 -5 -11 -11 0 -5 5 -7 12 -3 7 5 8 3 3 -7 -9 -14 -15 -37 -18 -76 -1 -16
-7 -21 -17 -18 -13 4 -16 -4 -15 -41 0 -25 -3 -48 -7 -50 -4 -3 -5 -12 -2 -22
5 -14 4 -14 -4 -3 -6 8 -8 23 -6 34 3 16 1 18 -8 9 -6 -6 -12 -28 -13 -49 -1
-21 -3 -48 -4 -59 0 -12 -9 -24 -19 -26 -14 -4 -19 -16 -20 -49 -4 -67 -4 -68
-24 -75 -14 -4 -18 -15 -18 -49 0 -55 -9 -82 -21 -63 -7 10 -9 9 -10 -4 -1
-17 -4 -30 -9 -45 -1 -5 -1 -16 0 -27 1 -11 -3 -15 -9 -12 -6 4 -11 2 -11 -3
0 -6 4 -11 9 -11 11 0 9 -24 -3 -28 -4 -2 -11 0 -14 4 -4 4 -1 4 7 -1 10 -5
12 -4 7 4 -10 15 -25 5 -25 -17 0 -59 -9 -114 -20 -124 -11 -10 -13 -10 -7 0
4 6 3 12 -3 12 -11 0 -8 -54 4 -84 5 -12 5 -17 -2 -13 -5 3 -10 0 -10 -8 0
-11 3 -12 14 -3 8 6 12 17 9 25 -3 8 -1 11 4 8 5 -3 10 -16 10 -28 0 -43 3
-56 17 -61 9 -4 12 -1 8 7 -4 6 0 3 9 -7 8 -10 13 -23 10 -27 -5 -8 10 -13 29
-10 4 0 7 -3 7 -9 0 -5 8 -7 18 -3 14 5 14 3 -2 -9 -19 -15 -19 -16 10 -17 16
-1 38 -2 49 -2 15 0 16 -2 6 -8 -11 -7 -11 -13 -1 -27 11 -18 11 -18 6 0 -5
16 -4 17 8 7 22 -18 101 -10 100 10 -1 15 15 18 104 22 8 0 7 6 -4 18 -15 17
-15 18 5 14 11 -2 23 0 26 5 3 5 14 7 25 5 14 -3 20 2 20 16 0 18 10 22 63 22
11 0 16 5 13 13 -3 8 -2 14 2 15 29 3 46 10 53 21 7 10 9 10 9 1 0 -7 5 -13
10 -13 6 0 10 9 10 21 0 15 5 19 22 17 13 -2 23 2 23 9 0 16 7 21 38 27 36 6
49 15 41 28 -4 7 -2 8 5 4 6 -4 9 -12 6 -17 -10 -14 9 -11 31 7 10 8 14 13 9
10 -6 -2 -17 -1 -25 5 -15 9 12 13 68 11 20 -1 21 0 7 14 -8 9 -15 16 -15 18
0 2 40 7 68 9 6 0 12 4 12 9 0 4 5 8 11 8 5 0 7 -4 4 -10 -3 -5 -1 -10 5 -10
7 0 10 6 7 13 -5 13 17 39 27 30 3 -3 12 0 21 7 10 8 15 9 15 2 0 -6 7 -9 15
-6 8 4 15 10 15 16 0 5 -4 6 -10 3 -5 -3 -17 -2 -26 3 -18 10 -12 11 77 15 26
1 35 5 32 14 -3 7 -9 13 -15 13 -5 0 -6 -6 -2 -13 5 -8 2 -8 -9 2 -9 7 -17 14
-17 15 0 2 46 8 73 9 10 1 15 7 13 14 -7 17 7 24 24 11 12 -8 12 -9 -3 -4 -11
4 -16 2 -12 -5 9 -14 30 -6 30 12 0 14 4 15 47 18 19 1 20 3 7 13 -8 7 -12 12
-10 11 2 -2 11 3 19 10 13 9 14 9 8 0 -4 -7 -2 -13 3 -13 6 0 11 5 11 11 0 6
9 9 20 6 11 -3 23 -1 26 4 3 5 9 7 14 4 5 -3 11 4 15 15 6 18 30 26 59 21 5
-1 4 5 -4 13 -11 14 -9 16 8 16 12 0 23 4 27 10 3 5 12 7 20 3 11 -3 15 2 15
18 0 19 2 21 9 9 6 -8 8 -17 6 -20 -2 -4 3 -7 11 -7 10 0 11 4 4 11 -15 15
-12 26 4 20 8 -3 17 -1 20 5 4 6 13 8 21 5 10 -4 13 0 10 15 -4 21 13 25 27 6
5 -6 8 -5 8 3 0 6 9 12 19 12 11 0 23 9 26 20 5 16 16 20 48 21 23 0 36 3 29
6 -24 9 8 33 45 33 26 0 36 5 40 20 4 15 14 20 40 20 26 0 36 5 40 20 3 11 14
20 24 20 10 0 25 10 33 22 9 12 16 18 16 12 0 -5 -5 -15 -12 -22 -9 -9 -9 -12
1 -12 7 0 15 9 18 20 3 12 14 20 29 21 45 3 49 4 46 22 -2 9 2 17 8 17 6 0 10
8 8 18 -2 11 3 17 15 16 9 -1 17 2 17 7 0 5 8 9 18 10 12 0 11 3 -7 10 -18 7
-21 12 -12 23 6 7 7 17 3 21 -4 5 -1 5 6 1 7 -4 10 -12 7 -17 -4 -5 1 -9 9 -9
10 0 16 -9 16 -25 0 -14 6 -25 13 -25 9 0 8 -3 -2 -9 -20 -13 -1 -20 49 -16
63 6 70 7 64 17 -3 5 -10 6 -15 3 -5 -4 -9 -1 -9 5 0 7 6 10 13 7 7 -3 24 1
38 9 21 12 15 19 -13 15 -3 0 -5 13 -3 29 2 17 0 30 -5 30 -5 0 -7 9 -5 20 2
13 -2 20 -11 20 -8 0 -14 6 -14 13 0 7 -3 8 -8 2 -4 -5 -22 -10 -39 -10 -18 1
-33 -3 -33 -7 0 -4 -6 -7 -12 -6 -7 2 -12 -5 -10 -14 2 -13 -5 -17 -38 -16
-24 0 -40 5 -39 12 1 6 1 27 0 46 -1 27 -4 31 -11 20 -7 -11 -10 -11 -10 -2 0
7 -5 10 -10 7 -8 -5 -16 39 -11 68 0 4 -4 7 -10 7 -6 0 -9 -7 -5 -15 3 -9 0
-15 -8 -15 -12 0 -16 11 -17 52 0 11 -8 18 -20 18 -13 0 -19 7 -19 24 0 19 -4
23 -19 19 -16 -4 -19 2 -23 37 -2 23 1 44 6 47 5 3 6 1 2 -5 -4 -7 -2 -12 4
-12 6 0 9 -4 6 -8 -3 -5 1 -9 8 -9 7 0 13 6 13 13 0 7 -4 11 -9 8 -4 -3 -8 0
-8 6 0 6 10 10 23 8 12 -2 21 -9 19 -16 -1 -8 2 -11 8 -7 6 3 8 11 5 16 -4 5
8 10 24 10 35 2 39 2 64 14 12 5 15 10 8 14 -6 4 15 8 47 8 251 4 307 9 304
26 -2 9 2 17 8 17 5 0 10 -5 10 -11 0 -8 4 -8 13 -1 7 6 30 10 52 10 91 0 86
-4 84 60 -2 64 -7 81 -20 61 -5 -8 -9 -9 -9 -3 0 8 -42 10 -147 7 -212 -6
-204 -5 -199 -20 3 -7 1 -13 -4 -13 -6 0 -10 6 -10 13 0 8 -13 13 -34 13 -27
0 -33 -3 -24 -13 12 -14 22 -18 14 -5 -3 5 1 9 8 9 26 0 12 -22 -16 -24 -15 0
-25 3 -23 7 3 5 1 12 -5 15 -6 4 -9 1 -8 -6 3 -13 -23 -18 -97 -19 -54 -1 -85
-12 -66 -24 6 -4 11 -2 11 3 0 6 4 11 8 11 5 0 9 -6 9 -13 0 -12 -19 -14 -124
-17 -23 0 -45 -6 -49 -12 -4 -7 -3 -8 4 -4 7 4 12 1 12 -6 0 -9 -13 -13 -40
-13 -39 0 -52 9 -27 18 6 3 -2 8 -20 12 -22 5 -33 14 -35 29 -2 11 -10 21 -18
21 -8 0 -17 9 -20 20 -4 11 -15 20 -25 20 -13 0 -19 6 -17 17 2 11 -6 18 -20
20 -13 2 -23 10 -23 18 0 8 -13 20 -30 27 -16 6 -25 12 -18 12 7 1 10 8 7 16
-5 11 -10 13 -19 5 -15 -12 -30 14 -18 32 3 7 1 8 -5 4 -7 -4 -12 -2 -12 3 0
6 -5 11 -11 11 -5 0 -7 -5 -3 -12 4 -7 3 -8 -4 -4 -7 4 -12 16 -12 27 0 10 -3
19 -7 18 -16 -2 -53 14 -53 23 0 5 6 6 13 2 8 -6 8 -3 -1 9 -8 9 -17 16 -20
15 -33 -4 -52 4 -52 22 0 12 -6 20 -12 19 -27 -3 -36 2 -34 18 0 10 -5 18 -11
19 -7 1 -18 2 -23 3 -6 0 -10 8 -8 17 2 10 -4 19 -12 21 -13 4 -13 3 0 -6 11
-8 12 -11 2 -11 -7 0 -10 -5 -6 -12 4 -6 3 -8 -2 -5 -11 7 -15 42 -19 192 -3
138 -3 137 -15 130 -8 -5 -8 -11 0 -20 8 -10 8 -15 -1 -21 -7 -4 -9 -3 -5 4 3
6 1 14 -5 17 -5 4 -8 12 -6 19 2 6 1 20 -3 31 -4 11 -4 32 1 48 4 15 4 28 -2
28 -5 1 -15 2 -21 3 -18 2 -16 31 2 31 8 0 14 -6 12 -14 -2 -9 4 -12 17 -8 15
4 22 -2 30 -23 5 -16 9 -30 8 -32 -1 -2 4 3 10 11 11 12 13 12 19 -2 3 -10 10
-17 16 -17 5 0 6 5 3 10 -3 6 -2 10 4 10 5 0 12 -6 14 -12 5 -11 11 22 9 43
-1 3 6 6 13 6 12 0 12 -3 2 -16 -8 -10 -8 -13 0 -8 6 4 13 1 16 -5 2 -7 5 -2
5 12 1 14 2 32 3 40 1 8 1 28 1 43 -2 23 -6 27 -21 22 -15 -4 -20 1 -25 26 -4
23 -9 29 -18 22 -7 -6 -23 -9 -35 -8 -18 1 -23 -4 -23 -23 0 -16 -4 -22 -13
-19 -8 3 -20 1 -28 -4 -9 -6 -10 -9 -2 -9 7 0 10 -7 7 -15 -9 -22 -44 -19 -44
4 0 10 -8 25 -17 32 -11 10 -14 10 -9 2 4 -7 3 -13 -3 -13 -5 0 -11 9 -13 20
-2 12 -5 19 -8 18 -10 -6 -37 27 -33 39 3 9 -4 13 -21 13 -18 0 -24 4 -20 15
5 13 -7 21 -20 13 -2 -2 -14 6 -27 17 -12 11 -19 14 -15 8 10 -18 -63 -11 -76
8 -8 11 -9 11 -4 -3z m-23 -205 c10 -11 10 -14 2 -9 -8 4 -13 2 -13 -6 0 -10
-3 -9 -9 2 -6 8 -7 18 -5 22 7 11 10 10 25 -9z m319 -53 c0 -5 -2 -10 -4 -10
-3 0 -8 5 -11 10 -3 6 -1 10 4 10 6 0 11 -4 11 -10z m-962 -45 c-3 -3 -9 2
-12 12 -6 14 -5 15 5 6 7 -7 10 -15 7 -18z m593 -28 c-10 -9 -11 -8 -5 6 3 10
9 15 12 12 3 -3 0 -11 -7 -18z m52 -32 c9 -22 -8 -26 -21 -4 -10 15 -10 19 2
19 8 0 16 -7 19 -15z m-59 -50 c-4 -8 -11 -12 -16 -9 -6 4 -5 10 3 15 19 12
19 11 13 -6z m-147 -162 c0 -7 -4 -13 -8 -13 -4 0 -9 6 -12 13 -3 8 0 14 7 14
7 0 13 -6 13 -14z m-437 -79 c0 -8 -19 -13 -24 -6 -3 5 1 9 9 9 8 0 15 -2 15
-3z m58 -6 c-6 -16 -38 -23 -38 -9 0 6 7 7 17 4 11 -4 14 -3 9 5 -4 7 -2 12 4
12 7 0 10 -6 8 -12z m1125 -113 c-3 -9 -8 -14 -10 -11 -3 3 -2 9 2 15 9 16 15
13 8 -4z m52 -54 c-6 -5 -25 10 -25 20 0 5 6 4 14 -3 8 -7 12 -15 11 -17z
m899 -306 c-4 -8 -11 -15 -16 -15 -6 0 -5 6 2 15 7 8 14 15 16 15 2 0 1 -7 -2
-15z m75 1 c9 -10 4 -13 -21 -11 -40 3 -40 3 -34 13 8 13 44 12 55 -2z m-366
-529 c3 -8 -1 -14 -8 -14 -7 0 -11 6 -8 14 3 7 6 13 8 13 2 0 5 -6 8 -13z
m-160 -82 c-3 -9 -8 -14 -10 -11 -3 3 -2 9 2 15 9 16 15 13 8 -4z m-76 -41
c-3 -3 -12 -4 -19 -1 -8 3 -5 6 6 6 11 1 17 -2 13 -5z m-1624 -51 c-3 -7 -8
-13 -12 -13 -4 0 -8 6 -8 13 0 8 6 14 13 14 7 0 10 -6 7 -14z m-48 -123 c3 -5
1 -10 -4 -10 -6 0 -11 5 -11 10 0 6 2 10 4 10 3 0 8 -4 11 -10z m1225 -64 c0
-2 -7 -6 -15 -10 -8 -3 -15 -1 -15 4 0 6 7 10 15 10 8 0 15 -2 15 -4z m-1339
-310 c-9 -11 -9 -15 1 -19 9 -4 9 -6 1 -6 -19 -1 -27 20 -12 30 20 13 23 11
10 -5z m269 -221 c7 -9 8 -15 2 -15 -5 0 -12 7 -16 15 -3 8 -4 15 -2 15 2 0 9
-7 16 -15z m-45 -5 c3 -6 -1 -7 -9 -4 -18 7 -21 14 -7 14 6 0 13 -4 16 -10z"/>
<path d="M2455 2590 c-3 -5 -1 -10 4 -10 6 0 11 5 11 10 0 6 -2 10 -4 10 -3 0
-8 -4 -11 -10z"/>
<path d="M2480 2570 c0 -4 -9 -6 -20 -3 -19 5 -24 -4 -23 -45 1 -10 -2 -10
-13 -1 -8 6 -14 10 -15 8 -6 -31 -5 -36 9 -35 15 1 20 -16 25 -84 2 -19 7 -36
12 -37 13 -4 13 20 0 30 -6 5 -4 7 5 4 17 -4 21 -45 6 -65 -7 -11 -11 -11 -17
0 -5 7 -7 -3 -4 -24 3 -23 1 -38 -5 -38 -6 0 -10 -8 -8 -17 3 -16 -8 -18 -89
-20 -68 -2 -93 1 -93 10 0 8 -4 7 -10 -3 -6 -10 -10 -11 -10 -2 0 6 -5 12 -11
12 -5 0 -8 -4 -5 -8 3 -5 -1 -9 -9 -9 -8 0 -15 5 -15 11 0 7 -3 7 -8 1 -6 -9
-23 -14 -59 -17 -16 -2 -17 -18 -2 -18 6 0 4 -6 -3 -14 -8 -7 -13 -28 -12 -45
1 -17 -1 -33 -6 -36 -4 -2 -6 9 -5 25 2 24 0 28 -10 20 -21 -18 -9 -55 18 -55
7 0 11 -15 10 -37 -1 -32 2 -38 19 -38 14 0 18 -5 15 -15 -4 -8 -2 -17 4 -20
5 -4 7 -11 4 -16 -4 -5 0 -9 7 -9 10 0 9 -3 -2 -11 -13 -9 -13 -10 0 -6 8 2
14 12 12 22 -2 11 1 14 8 10 6 -4 9 -13 6 -21 -3 -7 -1 -16 3 -18 5 -3 6 -17
3 -32 -3 -15 -8 -21 -12 -14 -7 12 -46 10 -69 -4 -9 -6 -12 -5 -8 1 4 6 0 16
-7 22 -11 9 -16 9 -22 0 -4 -8 -3 -9 4 -5 7 4 12 1 12 -9 0 -9 -4 -13 -10 -10
-5 3 -10 -1 -10 -9 0 -17 9 -20 49 -16 13 1 21 -2 18 -7 -4 -6 0 -10 7 -10 8
0 12 10 10 24 -1 13 2 21 7 17 5 -3 7 -10 4 -15 -4 -5 1 -10 9 -10 25 -2 30
-4 45 -13 10 -7 12 -6 6 4 -6 10 -1 12 19 8 21 -4 24 -3 15 8 -6 8 -16 11 -22
7 -6 -3 -7 -1 -3 5 5 8 13 9 24 3 15 -8 17 -2 18 55 0 35 -3 61 -7 58 -5 -3
-6 2 -3 10 4 12 0 16 -17 17 -23 0 -23 1 -4 9 17 7 17 9 2 9 -9 1 -16 6 -15
13 2 7 -2 12 -9 13 -6 0 -15 4 -20 8 -4 5 -2 7 6 5 7 -1 16 3 18 10 3 7 1 12
-4 11 -23 -4 -29 4 -30 41 l-1 41 59 -2 c48 -2 59 -5 57 -18 -3 -19 29 -23 51
-7 11 8 13 8 8 -1 -10 -16 75 -15 85 1 6 8 8 7 8 -1 0 -7 7 -13 15 -13 8 0 15
5 15 11 0 5 -4 7 -10 4 -6 -4 -7 1 -3 11 5 14 8 13 18 -6 10 -19 13 -20 18 -6
4 10 3 15 -3 11 -6 -3 -10 -1 -10 4 0 6 11 11 25 11 22 0 30 9 26 33 0 4 4 7
10 7 6 0 9 9 6 19 -3 14 -1 18 9 14 8 -3 12 -9 9 -13 -3 -5 -2 -11 2 -13 13
-8 13 106 0 122 -9 12 -9 13 1 7 11 -7 12 5 0 92 -2 17 -11 5 -13 -18 -1 -10
2 -17 7 -14 10 6 9 -5 -2 -31 -8 -19 -9 -19 -11 3 -1 12 -3 27 -4 32 -1 6 -3
28 -4 51 -1 24 -5 38 -11 34 -6 -4 -8 -10 -5 -15 3 -5 1 -11 -4 -15 -6 -3 -8
3 -6 15 2 11 -1 20 -6 20 -6 0 -8 4 -5 8 7 12 -10 35 -28 38 -9 1 -16 -1 -16
-6z m0 -240 c0 -5 -5 -10 -11 -10 -5 0 -7 5 -4 10 3 6 8 10 11 10 2 0 4 -4 4
-10z m-7 -37 c-3 -7 -6 -13 -8 -13 -2 0 -5 6 -8 13 -3 8 1 14 8 14 7 0 11 -6
8 -14z m-152 -116 c-10 -9 -11 -8 -5 6 3 10 9 15 12 12 3 -3 0 -11 -7 -18z"/>
<path d="M2406 2548 c3 -5 10 -6 15 -3 13 9 11 12 -6 12 -8 0 -12 -4 -9 -9z"/>
<path d="M1075 2521 c-3 -5 -2 -12 3 -15 5 -3 9 1 9 9 0 17 -3 19 -12 6z"/>
<path d="M2047 2509 c7 -7 15 -10 18 -7 3 3 -2 9 -12 12 -14 6 -15 5 -6 -5z"/>
<path d="M2030 2481 c0 -5 -10 -7 -22 -4 -22 4 -22 4 2 -12 14 -8 18 -15 10
-14 -37 3 -38 1 -31 -115 1 -15 4 -16 16 -6 12 10 16 9 20 -2 4 -10 15 -13 30
-10 14 2 22 8 19 13 -3 5 0 9 6 9 6 0 8 4 5 10 -3 5 0 8 7 5 7 -3 18 6 25 20
8 17 8 25 0 25 -6 0 -8 3 -4 6 3 3 11 3 17 -1 8 -5 8 -10 0 -20 -8 -9 -8 -15
0 -20 11 -7 12 -4 14 38 1 16 -2 31 -8 34 -5 3 -6 1 -2 -5 4 -7 1 -12 -8 -12
-9 0 -15 3 -15 8 1 4 1 18 0 32 -1 22 -6 25 -41 27 -22 2 -40 -1 -40 -6z"/>
<path d="M1315 2460 c-3 -6 1 -7 9 -4 18 7 21 14 7 14 -6 0 -13 -4 -16 -10z"/>
<path d="M1952 2428 c2 -6 10 -14 16 -16 7 -2 10 2 6 12 -7 18 -28 22 -22 4z"/>
<path d="M1360 2403 c7 -3 8 -9 1 -17 -8 -9 -7 -13 3 -13 17 0 14 30 -3 33 -7
2 -7 0 -1 -3z"/>
<path d="M1953 2385 c0 -6 6 -12 12 -12 6 0 12 6 12 12 0 6 -6 12 -12 12 -6 0
-12 -6 -12 -12z"/>
<path d="M2090 2329 c0 -5 5 -7 10 -4 6 3 10 8 10 11 0 2 -4 4 -10 4 -5 0 -10
-5 -10 -11z"/>
<path d="M10 2289 c0 -5 5 -7 10 -4 6 3 10 8 10 11 0 2 -4 4 -10 4 -5 0 -10
-5 -10 -11z"/>
<path d="M530 2260 c0 -14 -7 -20 -21 -20 -11 0 -17 -4 -14 -10 3 -5 2 -10 -4
-10 -6 0 -8 -7 -4 -16 4 -11 1 -15 -12 -12 -10 2 -20 -4 -22 -12 -4 -12 -2
-12 5 -2 11 16 32 -6 35 -37 1 -13 8 -21 19 -21 12 0 18 -7 18 -21 0 -17 5
-20 33 -18 40 4 49 8 41 20 -4 6 -10 6 -18 0 -9 -8 -13 -7 -13 4 0 7 3 14 6
13 28 -3 42 4 39 20 -2 13 4 17 27 15 17 0 24 1 18 4 -7 2 -13 16 -13 29 0 14
-4 22 -10 19 -5 -3 -10 1 -10 10 0 10 5 13 12 9 7 -4 8 -3 4 4 -10 17 -15 15
-26 -10 -9 -23 -9 -23 -11 2 -1 14 -1 28 0 33 0 4 -5 7 -11 7 -9 0 -8 4 2 11
13 9 13 10 0 6 -8 -2 -14 -12 -12 -22 2 -10 -1 -14 -7 -10 -6 3 -11 13 -11 21
0 8 -9 14 -20 14 -13 0 -20 -7 -20 -20z"/>
<path d="M1196 2268 c3 -5 10 -6 15 -3 13 9 11 12 -6 12 -8 0 -12 -4 -9 -9z"/>
<path d="M2079 2193 c-13 -16 -12 -17 4 -4 9 7 17 15 17 17 0 8 -8 3 -21 -13z"/>
<path d="M158 2183 c7 -3 16 -2 19 1 4 3 -2 6 -13 5 -11 0 -14 -3 -6 -6z"/>
<path d="M2275 2181 c-3 -5 -2 -12 3 -15 5 -3 9 1 9 9 0 17 -3 19 -12 6z"/>
<path d="M627 2135 c3 -8 9 -12 14 -9 12 7 11 11 -5 17 -10 4 -13 1 -9 -8z"/>
<path d="M1386 2105 c-4 -11 -2 -14 7 -10 6 4 5 1 -4 -7 -8 -7 -21 -22 -28
-33 -11 -19 -12 -19 -5 4 4 16 3 21 -5 17 -6 -4 -11 -15 -11 -25 0 -12 -7 -18
-17 -17 -12 1 -19 -7 -21 -24 -2 -19 -1 -22 7 -10 5 8 7 19 3 25 -3 5 2 4 11
-4 10 -8 17 -21 16 -30 -4 -44 0 -52 21 -41 16 8 20 8 18 -2 -2 -7 -12 -16
-23 -19 -15 -4 -10 -7 18 -10 26 -4 42 0 50 10 9 12 9 13 0 7 -7 -4 -13 -4
-13 -1 0 3 13 11 30 16 16 6 27 15 24 20 -3 5 5 10 18 10 17 1 18 3 6 6 -10 2
-18 8 -18 13 0 5 6 7 14 4 10 -4 14 1 13 15 -1 13 -8 21 -20 21 -10 0 -16 4
-13 9 3 5 -3 20 -15 32 -11 13 -18 18 -14 12 4 -8 0 -13 -10 -13 -9 0 -15 7
-13 16 4 22 -18 29 -26 9z"/>
<path d="M1712 2065 c-1 -8 -2 -26 -3 -40 -1 -14 -6 -25 -11 -25 -5 0 -6 -6
-1 -12 12 -21 14 -48 2 -48 -6 0 -7 -6 -2 -12 10 -17 11 -58 1 -85 -4 -13 -4
-23 0 -23 5 0 9 -21 9 -47 1 -92 3 -104 13 -98 6 3 10 1 10 -5 0 -6 5 -8 12
-4 8 5 9 2 5 -9 -3 -9 -2 -19 3 -22 5 -3 11 3 13 12 4 17 5 17 6 1 1 -11 8
-17 19 -15 21 3 61 26 47 27 -6 0 -17 -6 -24 -12 -11 -11 -11 -9 -1 8 7 12 22
21 34 20 15 -1 21 5 22 22 1 24 -6 28 -22 12 -7 -7 -11 -6 -11 4 0 8 4 13 9
10 4 -3 8 0 8 6 0 6 4 9 8 6 10 -6 9 35 -1 52 -5 7 -12 10 -17 7 -4 -3 -8 43
-9 101 -2 103 -1 106 19 101 11 -3 20 -1 20 3 0 5 3 16 7 26 4 10 2 15 -4 11
-5 -3 -10 0 -10 8 0 8 4 15 9 15 4 0 8 -5 8 -10 0 -6 6 -5 14 2 8 7 12 15 11
18 -2 3 -41 7 -86 9 -72 2 -81 1 -75 -14 3 -9 2 -14 -3 -10 -5 3 -11 2 -14 -2
-2 -5 -2 -3 -1 4 2 7 0 15 -5 17 -4 3 -8 -1 -9 -9z m145 -51 c-3 -3 -12 -4
-19 -1 -8 3 -5 6 6 6 11 1 17 -2 13 -5z m-9 -260 c-14 -14 -15 -14 -13 8 3 33
4 33 17 20 10 -9 9 -16 -4 -28z"/>
<path d="M1890 2029 c-14 -24 -13 -29 6 -29 9 0 12 5 8 12 -4 6 5 3 19 -8 24
-17 32 -34 28 -57 -1 -5 3 -6 8 -3 5 4 11 1 14 -6 2 -7 3 -5 2 4 -2 9 4 19 12
22 8 3 11 11 7 17 -4 8 1 9 17 5 21 -6 21 -5 6 4 -9 6 -25 10 -35 9 -33 -3
-40 1 -35 20 7 26 -44 36 -57 10z"/>
<path d="M1910 1991 c0 -6 6 -11 13 -11 8 0 7 -4 -3 -10 -13 -8 -12 -10 3 -10
21 0 22 13 2 30 -10 9 -15 9 -15 1z"/>
<path d="M1680 1970 c-9 -6 -10 -10 -3 -10 6 0 15 5 18 10 8 12 4 12 -15 0z"/>
<path d="M2010 1960 c0 -6 -4 -8 -10 -5 -5 3 -10 -3 -10 -14 0 -17 6 -21 30
-21 17 0 30 -5 30 -11 0 -5 -4 -8 -8 -5 -5 3 -9 -1 -9 -8 0 -7 6 -13 13 -13 7
0 13 3 12 6 0 3 1 8 2 11 1 3 4 17 6 32 5 27 -7 31 -35 14 -9 -6 -12 -5 -7 2
3 6 2 13 -4 17 -5 3 -10 1 -10 -5z"/>
<path d="M468 1933 c7 -3 16 -2 19 1 4 3 -2 6 -13 5 -11 0 -14 -3 -6 -6z"/>
<path d="M335 1910 c-4 -6 -10 -8 -15 -5 -5 3 -11 1 -15 -5 -4 -6 -11 -8 -16
-5 -5 4 -16 2 -26 -3 -13 -8 -7 -10 24 -9 28 1 44 7 52 19 6 10 9 18 7 18 -3
0 -8 -5 -11 -10z"/>
<path d="M577 1913 c-11 -11 -8 -20 7 -20 8 0 12 6 9 14 -6 15 -7 15 -16 6z"/>
<path d="M130 1891 c0 -4 11 -8 25 -9 14 -1 25 2 25 7 0 5 -11 9 -25 9 -14 0
-25 -3 -25 -7z"/>
<path d="M190 1890 c0 -5 7 -10 15 -10 8 0 15 5 15 10 0 6 -7 10 -15 10 -8 0
-15 -4 -15 -10z"/>
<path d="M450 1852 c0 -5 7 -9 15 -9 8 0 12 4 9 9 -3 4 -9 8 -15 8 -5 0 -9 -4
-9 -8z"/>
<path d="M2170 1849 c0 -5 5 -7 10 -4 6 3 10 8 10 11 0 2 -4 4 -10 4 -5 0 -10
-5 -10 -11z"/>
<path d="M1850 1821 c0 -6 4 -13 10 -16 6 -3 7 1 4 9 -7 18 -14 21 -14 7z"/>
<path d="M1720 1541 c0 -6 4 -13 10 -16 6 -3 7 1 4 9 -7 18 -14 21 -14 7z"/>
<path d="M2467 1446 c-16 -12 -15 -13 10 -13 16 0 22 2 15 4 -6 3 -10 9 -6 14
7 12 2 11 -19 -5z"/>
<path d="M2510 1448 c0 -4 7 -8 15 -8 8 0 15 4 15 8 0 5 -7 9 -15 9 -8 0 -15
-4 -15 -9z"/>
<path d="M2086 1405 c-18 -14 -18 -14 1 -12 11 0 20 7 20 14 0 7 -1 13 -1 13
-1 0 -9 -7 -20 -15z"/>
<path d="M203 1335 c0 -7 7 -11 16 -8 9 2 5 -2 -9 -10 -18 -11 -27 -12 -32 -4
-8 13 -10 10 -12 -25 -1 -14 -8 -23 -17 -22 -9 1 -16 -5 -16 -13 0 -8 6 -12
13 -9 15 6 27 -21 13 -29 -12 -8 16 -36 33 -33 6 2 13 -3 14 -9 1 -7 2 -16 3
-20 0 -5 12 -8 26 -8 15 0 21 4 15 10 -16 15 -11 23 14 21 20 -3 23 1 20 25
-4 28 -2 29 45 17 10 -2 16 7 17 27 2 20 0 25 -5 16 -5 -8 -7 -20 -4 -28 4 -9
0 -11 -11 -7 -19 7 -20 16 -3 33 10 11 10 13 0 7 -7 -4 -13 -2 -13 3 0 6 -4
11 -9 11 -5 0 -7 -10 -5 -22 4 -21 4 -21 -5 -3 -5 12 -5 25 1 33 11 12 0 17
-32 12 -8 -1 -12 1 -8 5 8 8 -19 38 -37 41 -6 1 -12 -4 -12 -11z"/>
<path d="M290 1146 c0 -2 8 -10 18 -17 15 -13 16 -12 3 4 -13 16 -21 21 -21
13z"/>
<path d="M2296 1044 c-7 -19 1 -34 17 -33 9 0 9 2 1 5 -7 3 -10 14 -7 24 6 24
-2 27 -11 4z"/>
<path d="M2086 955 c4 -8 10 -12 15 -9 11 6 2 24 -11 24 -5 0 -7 -7 -4 -15z"/>
<path d="M2486 948 c3 -4 -9 -8 -25 -8 -17 0 -31 -5 -31 -11 0 -5 4 -7 10 -4
5 3 7 0 4 -9 -3 -8 -15 -16 -26 -18 -22 -3 -33 -34 -17 -44 5 -3 7 -10 3 -15
-3 -6 4 -13 15 -16 13 -3 20 -12 19 -22 -2 -12 6 -16 40 -18 36 -2 42 1 42 18
0 12 7 19 20 19 17 0 24 10 22 31 -1 3 -2 25 -3 48 -2 28 -7 40 -15 37 -7 -3
-15 1 -18 9 -3 8 -14 13 -25 12 -11 0 -17 -5 -15 -9z m64 -32 c0 -3 -4 -8 -10
-11 -5 -3 -10 -1 -10 4 0 6 5 11 10 11 6 0 10 -2 10 -4z m-117 -73 c-3 -7 -8
-13 -12 -13 -4 0 -8 6 -8 13 0 8 6 14 13 14 7 0 10 -6 7 -14z"/>
<path d="M2581 871 c-12 -8 -12 -12 -2 -24 9 -12 9 -16 -1 -20 -9 -4 -9 -6 -1
-6 16 -1 26 16 13 24 -8 5 -7 11 1 21 13 16 10 18 -10 5z"/>
<path d="M1750 766 c0 -2 8 -10 18 -17 15 -13 16 -12 3 4 -13 16 -21 21 -21
13z"/>
<path d="M1675 721 c-3 -5 -2 -12 3 -15 5 -3 9 1 9 9 0 17 -3 19 -12 6z"/>
<path d="M2231 679 c-6 -19 -15 -27 -24 -23 -11 4 -14 -4 -13 -38 2 -24 5 -49
9 -55 4 -6 1 -14 -5 -16 -7 -3 2 -4 20 -2 17 2 32 0 32 -5 0 -5 7 -7 15 -4 9
4 15 0 15 -7 0 -11 3 -11 10 1 5 8 10 11 10 6 0 -5 6 -3 14 4 8 6 12 19 9 28
-6 14 -5 15 9 2 12 -11 13 -19 5 -30 -9 -12 -9 -13 3 -3 8 8 14 34 14 68 1 50
-1 55 -19 53 -13 -2 -19 2 -17 11 3 12 0 12 -12 2 -12 -10 -15 -8 -20 7 -4 11
-15 22 -26 25 -14 4 -21 -3 -29 -24z m-1 -43 c0 -3 -4 -8 -10 -11 -5 -3 -10
-1 -10 4 0 6 5 11 10 11 6 0 10 -2 10 -4z m10 -72 c0 -2 -7 -4 -15 -4 -8 0
-15 4 -15 10 0 5 7 7 15 4 8 -4 15 -8 15 -10z"/>
<path d="M1787 689 c7 -7 15 -10 18 -7 3 3 -2 9 -12 12 -14 6 -15 5 -6 -5z"/>
<path d="M2211 684 c0 -11 3 -14 6 -6 3 7 2 16 -1 19 -3 4 -6 -2 -5 -13z"/>
<path d="M1758 683 c16 -6 15 -23 -1 -23 -8 0 -19 -10 -26 -22 -11 -23 -11
-23 -5 2 4 17 3 22 -4 15 -17 -17 -20 -121 -3 -110 5 3 16 -1 24 -9 14 -15 40
-16 53 -3 4 4 12 -1 19 -9 9 -13 12 -13 13 -3 2 29 8 50 15 49 4 0 9 0 12 0 3
0 1 -10 -5 -22 -11 -22 -10 -22 4 -4 24 30 21 76 -4 76 -18 0 -26 20 -21 53 1
4 -8 2 -20 -5 -17 -11 -22 -10 -30 5 -6 9 -15 17 -22 16 -9 0 -9 -2 1 -6z"/>
<path d="M90 570 c0 -5 5 -10 11 -10 5 0 7 5 4 10 -3 6 -8 10 -11 10 -2 0 -4
-4 -4 -10z"/>
<path d="M1770 509 c0 -4 -8 -6 -17 -3 -15 5 -15 4 -4 -4 9 -7 21 -7 32 -2 9
5 18 8 20 7 2 -1 3 0 1 2 -5 9 -32 9 -32 0z"/>
<path d="M2311 403 c4 -22 -3 -31 -20 -28 -21 4 -35 -27 -19 -43 5 -5 4 -13
-5 -20 -11 -9 -13 -6 -13 20 1 20 -4 33 -14 35 -12 4 -12 3 -1 -5 9 -7 10 -12
2 -16 -6 -4 -8 -13 -4 -19 4 -7 8 -16 8 -22 1 -5 6 -9 13 -7 7 1 13 -5 13 -13
2 -16 5 -32 9 -40 1 -3 3 -10 4 -17 0 -6 17 -12 36 -12 28 -1 34 2 32 17 -2
10 3 17 12 17 10 0 13 -6 9 -17 -5 -12 0 -10 16 6 12 12 26 19 31 16 6 -4 10
-3 11 2 0 4 2 16 4 26 2 11 -1 15 -8 10 -8 -4 -8 -1 1 9 10 12 10 17 -1 26 -9
8 -17 8 -23 2 -6 -6 -9 0 -8 18 0 15 -4 30 -10 35 -8 5 -7 10 4 16 10 7 6 10
-17 9 -22 -1 -30 -5 -26 -14 3 -8 10 -11 16 -7 6 3 7 1 3 -6 -6 -8 -12 -9 -20
-2 -7 6 -16 8 -20 4 -4 -4 -4 0 0 10 3 10 1 17 -5 17 -6 0 -10 -3 -10 -7z m-1
-162 c0 -6 -4 -12 -8 -15 -5 -3 -9 1 -9 9 0 8 4 15 9 15 4 0 8 -4 8 -9z"/>
<path d="M880 315 c0 -7 30 -13 34 -7 3 4 -4 9 -15 9 -10 1 -19 0 -19 -2z"/>
<path d="M705 220 c3 -5 10 -10 16 -10 5 0 9 5 9 10 0 6 -7 10 -16 10 -8 0
-12 -4 -9 -10z"/>
<path d="M506 107 c3 -10 9 -15 12 -12 3 3 0 11 -7 18 -10 9 -11 8 -5 -6z"/>
</g>
</svg>
